<svg width="84" height="18" viewBox="0 0 84 18" fill="none" xmlns="http://www.w3.org/2000/svg">
<path d="M77.7366 14.3404C77.7366 13.1738 78.6836 12.2273 79.8495 12.2273C81.0161 12.2273 81.962 13.1738 81.962 14.3404C81.962 15.5069 81.0161 16.4528 79.8495 16.4528C78.6836 16.4528 77.7366 15.5069 77.7366 14.3404Z" fill="#86BC24"/>
<path d="M10.3475 8.74433C10.3475 7.40594 10.0889 6.41301 9.57167 5.76613C9.05378 5.11986 8.26928 4.79703 7.21462 4.79703H6.09269V12.9815H6.95106C8.12254 12.9815 8.981 12.6342 9.52761 11.9372C10.0736 11.2414 10.3475 10.1769 10.3475 8.74433ZM14.3486 8.60494C14.3486 11.0433 13.6931 12.9221 12.3823 14.241C11.0714 15.5604 9.22863 16.2201 6.85326 16.2201H2.23767V1.60913H7.17545C9.46581 1.60913 11.234 2.20892 12.4801 3.40791C13.7256 4.60751 14.3486 6.33904 14.3486 8.60494Z" fill="#0F0B0B"/>
<path d="M27.1338 16.22H30.8066V1.54785H27.1338V16.22Z" fill="#0F0B0B"/>
<path d="M35.9661 10.7472C35.9661 11.6827 36.0884 12.3962 36.3323 12.8865C36.5769 13.3775 36.9865 13.6227 37.5625 13.6227C38.1323 13.6227 38.5352 13.3775 38.77 12.8865C39.0048 12.3962 39.1216 11.6827 39.1216 10.7472C39.1216 9.81664 39.0029 9.11472 38.7651 8.64087C38.5266 8.1658 38.1201 7.92795 37.5436 7.92795C36.9799 7.92795 36.5769 8.16459 36.3323 8.63538C36.0884 9.10678 35.9661 9.81052 35.9661 10.7472ZM42.8598 10.7472C42.8598 12.5295 42.3926 13.9198 41.4559 14.9165C40.5199 15.9137 39.2096 16.4126 37.5252 16.4126C35.9098 16.4126 34.624 15.9026 33.6696 14.8828C32.714 13.863 32.2365 12.4849 32.2365 10.7472C32.2365 8.97044 32.7042 7.58985 33.6409 6.60547C34.5776 5.62109 35.8909 5.12891 37.582 5.12891C38.627 5.12891 39.5514 5.35697 40.3524 5.81248C41.1539 6.26798 41.7727 6.92037 42.2074 7.77023C42.6427 8.61888 42.8598 9.61181 42.8598 10.7472Z" fill="#0F0B0B"/>
<path d="M44.3182 16.22H47.9916V10.6048V5.32153H44.3182V16.22Z" fill="#0F0B0B"/>
<path d="M44.3182 4.00317H47.9916V1.54712H44.3182V4.00317Z" fill="#0F0B0B"/>
<path d="M55.4337 13.44C55.9296 13.44 56.5202 13.3141 57.2092 13.064V15.8062C56.714 16.0239 56.2432 16.1798 55.7957 16.2721C55.3481 16.3656 54.8229 16.4121 54.2219 16.4121C52.9886 16.4121 52.0996 16.1021 51.5536 15.4834C51.0101 14.8646 50.7374 13.9145 50.7374 12.6324V8.13967H49.451V5.32227H50.7374V2.5391L54.439 1.89526V5.32227H56.7825V8.13967H54.439V12.3817C54.439 13.0872 54.771 13.44 55.4337 13.44Z" fill="#0F0B0B"/>
<path d="M63.9353 13.44C64.4312 13.44 65.0219 13.3141 65.7109 13.064V15.8062C65.2163 16.0239 64.7448 16.1798 64.2973 16.2721C63.8491 16.3656 63.3257 16.4121 62.7235 16.4121C61.4903 16.4121 60.6013 16.1021 60.0565 15.4834C59.5118 14.8646 59.2391 13.9145 59.2391 12.6324V8.13967H57.952V5.32227H59.2391V2.49692L62.94 1.89526V5.32227H65.2847V8.13967H62.94V12.3817C62.94 13.0872 63.2719 13.44 63.9353 13.44Z" fill="#0F0B0B"/>
<path d="M70.3458 9.41945C70.396 8.82271 70.5667 8.38555 70.8576 8.10613C71.1499 7.82732 71.5106 7.68793 71.9423 7.68793C72.4131 7.68793 72.7872 7.84444 73.0648 8.15993C73.3442 8.47358 73.4898 8.89363 73.5014 9.41945H70.3458ZM75.5258 6.41375C74.6527 5.55777 73.4139 5.12915 71.8114 5.12915C70.1269 5.12915 68.8308 5.62133 67.9222 6.60571C67.0143 7.59009 66.5599 9.00248 66.5599 10.8428C66.5599 12.6251 67.051 13.9996 68.0304 14.9644C69.0105 15.9292 70.3868 16.4122 72.1593 16.4122C73.0104 16.4122 73.7429 16.3541 74.3568 16.2386C74.967 16.1242 75.5576 15.9176 76.1305 15.6192L75.5661 13.1631C75.1498 13.3331 74.7536 13.464 74.3794 13.5502C73.8389 13.6755 73.2459 13.7385 72.6002 13.7385C71.8922 13.7385 71.3333 13.5655 70.9237 13.2194C70.514 12.8727 70.2957 12.3946 70.2707 11.7856H76.836V10.1122C76.836 8.50233 76.3995 7.26912 75.5258 6.41375Z" fill="#0F0B0B"/>
<path d="M19.2233 9.41945C19.2734 8.82271 19.444 8.38555 19.735 8.10613C20.0266 7.82732 20.388 7.68793 20.8203 7.68793C21.2899 7.68793 21.664 7.84444 21.9423 8.15993C22.2217 8.47358 22.3666 8.89363 22.3795 9.41945H19.2233ZM24.4038 6.41375C23.5301 5.55777 22.2919 5.12915 20.6889 5.12915C19.0038 5.12915 17.7081 5.62133 16.8002 6.60571C15.8922 7.59009 15.4374 9.00248 15.4374 10.8428C15.4374 12.6251 15.9278 13.9996 16.9085 14.9644C17.888 15.9292 19.2642 16.4122 21.0367 16.4122C21.8878 16.4122 22.6203 16.3541 23.2341 16.2386C23.8443 16.1242 24.435 15.9176 25.0085 15.6192L24.4436 13.1631C24.0272 13.3331 23.631 13.464 23.2574 13.5502C22.7157 13.6755 22.1232 13.7385 21.4775 13.7385C20.7701 13.7385 20.2108 13.5655 19.8011 13.2194C19.3908 12.8727 19.1732 12.3946 19.1481 11.7856H25.7135V10.1122C25.7135 8.50233 25.2769 7.26912 24.4038 6.41375Z" fill="#0F0B0B"/>
</svg>
