<svg width="80" height="18" viewBox="0 0 80 18" fill="none" xmlns="http://www.w3.org/2000/svg">
<path d="M79.6335 5.84668L79.4018 8.58242H78.2806C76.4942 8.58242 75.5673 10.0101 75.5673 11.3854V17.567H72.413V5.84668H75.4103L75.4776 7.31172C76.1055 6.31011 77.2043 5.84668 78.5646 5.84668H79.6335Z" fill="#002856"/>
<path d="M57.7101 17.567H54.5483V11.3705C54.5483 10.0699 54.4287 8.44041 52.6123 8.44041C50.8558 8.44041 50.1531 9.71111 50.1531 11.1836V17.5596H46.9913V5.84669H49.9289L49.9962 7.34163C50.624 6.34002 51.7976 5.55518 53.5242 5.55518C56.7159 5.55518 57.7175 7.83496 57.7175 10.197L57.7101 17.567Z" fill="#002856"/>
<path d="M45.6086 14.8314L45.3844 17.4999C44.6519 17.6942 43.8969 17.7914 43.1345 17.7764C40.1521 17.7764 39.285 16.4086 39.285 13.6579V2.54297H42.4543V5.84679H45.6012L45.3844 8.58253H42.4543V13.4112C42.4543 14.5175 42.7533 15.108 43.8895 15.108C44.4725 15.1154 45.0555 15.0183 45.6086 14.8314Z" fill="#002856"/>
<path d="M38.2535 5.84668L38.0069 8.58242H37.1473C35.3683 8.58242 34.4788 10.0101 34.4788 11.3854V17.567H31.317V5.84668H34.3069L34.3667 7.31172C35.002 6.31759 36.1008 5.84668 37.4612 5.84668H38.2535Z" fill="#002856"/>
<path d="M17.0329 16.2664C14.8876 17.4176 12.7424 18.0753 9.90948 17.9931C4.66224 17.8361 0.872559 14.5697 0.872559 9.06831C0.872559 3.58934 4.69961 0.0837077 9.91695 0.00148594C12.563 -0.0358876 14.925 0.62936 16.7787 2.26632L14.5438 4.51621C13.4002 3.53702 11.7184 2.96894 9.70019 3.05864C6.41879 3.20813 4.43799 5.60004 4.39315 8.87396C4.3483 12.4244 6.53091 14.8762 9.93938 14.9658C11.5464 15.0032 12.6901 14.7939 13.6842 14.3454V10.7202H10.1412L10.3804 7.73781H17.0254L17.0329 16.2664Z" fill="#002856"/>
<path d="M71.0003 12.8282H62.3222C62.5688 14.3231 63.7498 15.2275 65.2149 15.2724C66.6425 15.3098 67.4349 14.8837 68.4813 13.8223L70.5443 15.3845C69.0793 17.1934 67.3153 17.8512 65.3046 17.8512C61.7765 17.8512 59.1379 15.3845 59.1379 11.707C59.1379 8.0294 61.769 5.56274 65.1775 5.56274C68.9373 5.56274 70.9928 7.84253 70.9928 11.8789L71.0003 12.8282ZM67.831 10.369C67.7339 8.88899 66.6276 7.95465 65.0953 8.01445C63.5704 8.07424 62.5315 9.07586 62.3222 10.369H67.831Z" fill="#002856"/>
<path d="M29.3213 9.8906V17.5671H26.5258L26.4585 16.4085C25.6064 17.47 24.2161 17.8512 22.781 17.8512C20.6282 17.8512 18.5951 16.7898 18.5503 14.3156C18.4905 10.4288 22.9305 10.1522 25.7185 10.1522H26.2791V9.99524C26.2791 8.70959 25.427 8.01445 23.8274 8.01445C22.6614 8.02192 21.5476 8.46293 20.6955 9.26272L18.8717 7.409C20.3367 6.19062 22.1905 5.53285 24.089 5.56274C27.7217 5.56274 29.3213 7.23708 29.3213 9.8906ZM26.2791 12.4544H25.8381C24.3432 12.4544 21.7121 12.5292 21.7196 14.0989C21.7345 16.3114 26.2791 15.6013 26.2791 12.9403V12.4544Z" fill="#002856"/>
<path d="M77.1669 16.1993C77.1894 15.4892 77.7799 14.9361 78.4825 14.9585C79.1926 14.9809 79.7457 15.5714 79.7233 16.2741C79.7009 16.9692 79.1328 17.5149 78.4451 17.5149C77.735 17.5149 77.1669 16.9393 77.1669 16.2367C77.1669 16.2292 77.1669 16.2143 77.1669 16.1993ZM78.4451 17.784C79.3122 17.769 80.0148 17.0589 79.9998 16.1844C79.9849 15.3173 79.2748 14.6147 78.4003 14.6296C77.5407 14.6446 76.8455 15.3397 76.8455 16.1993C76.838 17.0664 77.5407 17.7765 78.4077 17.784C78.4227 17.784 78.4376 17.784 78.4451 17.784ZM78.1087 16.3264H78.4302L78.9085 17.1112H79.215L78.7067 16.3114C78.9758 16.2815 79.1702 16.132 79.1702 15.8106C79.1702 15.4518 78.9609 15.2949 78.5273 15.2949H77.8397V17.1112H78.1162L78.1087 16.3264ZM78.1087 16.0947V15.5341H78.4825C78.6768 15.5341 78.8786 15.5714 78.8786 15.8032C78.8786 16.0797 78.6694 16.1021 78.4376 16.1021L78.1087 16.0947Z" fill="#002856"/>
</svg>
