<svg width="66" height="18" viewBox="0 0 66 18" fill="none" xmlns="http://www.w3.org/2000/svg">
<g clip-path="url(#clip0_101_11887)">
<path d="M7.26725 2.59863V7.62306H2.51631V2.59863H0.260742V14.5924H2.51631V9.73116H7.26725V14.5924H9.52282V2.59863H7.26725Z" fill="#33475B"/>
<path d="M17.1411 10.678C17.1411 11.6704 16.2968 12.4749 15.2552 12.4749C14.2136 12.4749 13.3692 11.6704 13.3692 10.678V5.58472H11.2068V10.678C11.2068 12.8062 13.0176 14.5314 15.2513 14.5314C17.485 14.5314 19.2957 12.8062 19.2957 10.678V5.58472H17.1411V10.678Z" fill="#33475B"/>
<path d="M33.1627 6.10948C33.1627 5.0655 33.8876 4.73454 34.6818 4.73454C35.3218 4.73454 36.1673 5.19853 36.7202 5.76149L38.1365 4.17157C37.4295 3.26062 35.9953 2.63062 34.8214 2.63062C32.4758 2.63062 30.7791 3.93958 30.7791 6.10948C30.7791 10.1353 35.9439 8.8583 35.9439 11.1112C35.9439 11.8061 35.2358 12.4202 34.4249 12.4202C33.146 12.4202 32.7316 11.8242 32.1441 11.1942L30.5725 12.7511C31.5778 13.9271 32.8176 14.5241 34.3031 14.5241C36.5314 14.5241 38.3241 13.1992 38.3241 11.1282C38.3241 6.65861 33.1594 8.04738 33.1594 6.10948" fill="#33475B"/>
<path d="M65.1141 12.6224C63.8363 12.6224 63.4733 12.0956 63.4733 11.289V7.7186H65.4593V5.90946H63.4733V3.52246L61.2808 4.46002V11.7328C61.2808 13.593 62.6278 14.5305 64.4752 14.5305C64.765 14.5356 65.0545 14.5135 65.3398 14.4645L65.8748 12.5884C65.6335 12.6043 65.3565 12.6203 65.1141 12.6203" fill="#33475B"/>
<path d="M25.3719 5.64441C24.3007 5.64441 23.5535 5.94026 22.8308 6.61603V2.7019H20.665V9.95654C20.665 12.6724 22.7258 14.5326 25.0412 14.5326C27.6102 14.5326 29.8698 12.6394 29.8698 10.0896C29.8698 7.57167 27.79 5.64548 25.3719 5.64548M25.3585 12.4563C24.0013 12.4563 22.9012 11.4081 22.9012 10.1151C22.9012 8.82208 24.0013 7.77387 25.3585 7.77387C26.7156 7.77387 27.8157 8.82208 27.8157 10.1151C27.8157 11.4081 26.7156 12.4563 25.3585 12.4563Z" fill="#33475B"/>
<path d="M48.8881 9.98111C48.8881 7.42704 46.633 5.53809 44.0596 5.53809C41.7441 5.53809 39.6833 7.3983 39.6833 10.1141V17.373H41.8491V13.4536C42.5707 14.1283 43.319 14.4252 44.3891 14.4252C46.8072 14.4252 48.887 12.5001 48.887 9.98111M46.8374 9.95557C46.8374 11.2486 45.7372 12.2968 44.3801 12.2968C43.023 12.2968 41.9228 11.2486 41.9228 9.95557C41.9228 8.66254 43.023 7.61434 44.3801 7.61434C45.7372 7.61434 46.8374 8.66254 46.8374 9.95557Z" fill="#33475B"/>
<path d="M55.625 5.85744V3.81136C56.2057 3.55357 56.578 3.00059 56.5808 2.39142V2.34366C56.5784 1.47543 55.8384 0.772171 54.9249 0.769839H54.8747C53.9612 0.772171 53.2212 1.47543 53.2188 2.34366V2.39142C53.2216 3.00059 53.5938 3.55357 54.1746 3.81136V5.85744C53.3566 5.97632 52.5862 6.29849 51.9414 6.79133L46.0302 2.42007C46.0723 2.27587 46.0948 2.12716 46.0972 1.97753C46.0984 0.996975 45.2631 0.201126 44.2314 0.199952C43.1997 0.198782 42.3623 0.992731 42.3611 1.97329C42.3599 2.95385 43.1952 3.7497 44.2269 3.75087C44.5514 3.74972 44.8699 3.66737 45.1503 3.51209L50.9622 7.81225C49.8908 9.34844 49.9196 11.3517 51.0347 12.8595L49.2661 14.5405C49.1241 14.4976 48.9762 14.4747 48.8272 14.4726C48.2063 14.4726 47.6464 14.8281 47.4088 15.3734C47.1712 15.9187 47.3025 16.5463 47.7416 16.9636C48.1807 17.381 48.8411 17.5058 49.4148 17.2799C49.9885 17.0541 50.3625 16.522 50.3625 15.9318C50.3605 15.7902 50.3364 15.6497 50.2911 15.5147L52.0408 13.8518C53.6056 14.9878 55.7481 15.0806 57.4152 14.0845C59.0822 13.0885 59.923 11.2132 59.5242 9.38051C59.1254 7.54783 57.571 6.14331 55.625 5.85744ZM54.9004 12.5878C53.5634 12.5878 52.4796 11.5577 52.4796 10.2871C52.4796 9.01638 53.5634 7.98629 54.9004 7.98629C56.2373 7.98629 57.3211 9.01638 57.3211 10.2871C57.3211 11.5577 56.2373 12.5878 54.9004 12.5878Z" fill="#FF7A59"/>
</g>
<defs>
<clipPath id="clip0_101_11887">
<rect width="65.7391" height="18" fill="white" transform="translate(0.260742)"/>
</clipPath>
</defs>
</svg>
